<?xml version="1.0" encoding="UTF-8" standalone="no"?>
<!-- Created with Inkscape (http://www.inkscape.org/) -->

<svg
   width="33.627552mm"
   height="34.805511mm"
   viewBox="0 0 33.627552 34.805511"
   version="1.1"
   id="svg5"
   xmlns:inkscape="http://www.inkscape.org/namespaces/inkscape"
   xmlns:sodipodi="http://sodipodi.sourceforge.net/DTD/sodipodi-0.dtd"
   xmlns="http://www.w3.org/2000/svg"
   xmlns:svg="http://www.w3.org/2000/svg">
  <sodipodi:namedview
     id="namedview7"
     pagecolor="#ffffff"
     bordercolor="#eeeeee"
     borderopacity="1"
     inkscape:showpageshadow="0"
     inkscape:pageopacity="0"
     inkscape:pagecheckerboard="0"
     inkscape:deskcolor="#505050"
     inkscape:document-units="mm"
     showgrid="false" />
  <defs
     id="defs2" />
  <g
     inkscape:label="Capa 1"
     inkscape:groupmode="layer"
     id="layer1"
     transform="translate(-54.757993,-152.51913)">
    <g
       aria-label="@"
       id="text4766"
       style="font-size:36.6942px;font-family:KacstArt;-inkscape-font-specification:KacstArt;text-align:center;text-anchor:middle;fill:#e7e7e7;fill-opacity:1;stroke:#e7e7e7;stroke-width:2.28333;stroke-linecap:round;stroke-linejoin:round;stroke-opacity:1"
       inkscape:export-filename="mail.svg"
       inkscape:export-xdpi="96"
       inkscape:export-ydpi="96"
       transform="rotate(-30,71.827067,170.12362)">
      <path
         d="m 67.204458,170.23112 q 0,2.56215 1.272113,4.03135 1.272113,1.45128 3.493832,1.45128 2.203802,0 3.457999,-1.4692 1.272113,-1.4692 1.272113,-4.01343 0,-2.50839 -1.29003,-3.97759 -1.290031,-1.48712 -3.475916,-1.48712 -2.167968,0 -3.457998,1.4692 -1.272113,1.4692 -1.272113,3.99551 z m 9.764813,5.35721 q -1.075025,1.37962 -2.472558,2.04255 -1.379616,0.64502 -3.225076,0.64502 -3.081739,0 -5.016785,-2.22172 -1.917129,-2.23964 -1.917129,-5.82306 0,-3.58341 1.935046,-5.82305 1.935046,-2.23964 4.998868,-2.23964 1.84546,0 3.242993,0.68085 1.397533,0.66293 2.454641,2.02463 v -2.34714 h 2.562144 v 13.18698 q 2.615895,-0.39417 4.085096,-2.38297 1.487119,-2.00671 1.487119,-5.17804 0,-1.91713 -0.573347,-3.60133 -0.55543,-1.68421 -1.702124,-3.11758 -1.863377,-2.34714 -4.55094,-3.58342 -2.669646,-1.25419 -5.823054,-1.25419 -2.203802,0 -4.228433,0.59126 -2.024631,0.57335 -3.744672,1.72004 -2.812983,1.82755 -4.407604,4.80178 -1.576704,2.95632 -1.576704,6.41432 0,2.84882 1.021274,5.33929 1.039192,2.49048 2.992154,4.38969 1.881295,1.86338 4.353853,2.8309 2.472558,0.98544 5.285541,0.98544 2.311305,0 4.533024,-0.78835 2.239636,-0.77044 4.103013,-2.22172 l 1.612538,1.9888 q -2.239636,1.73795 -4.891365,2.65173 -2.633812,0.93168 -5.35721,0.93168 -3.314661,0 -6.253064,-1.18252 -2.938402,-1.16461 -5.23179,-3.40425 -2.293387,-2.23964 -3.493832,-5.17804 -1.200445,-2.95632 -1.200445,-6.34265 0,-3.26091 1.218362,-6.21723 1.218362,-2.95632 3.475915,-5.19596 2.311305,-2.27547 5.339293,-3.47591 3.027988,-1.21836 6.414318,-1.21836 3.798423,0 7.041416,1.55878 3.26091,1.55879 5.464712,4.42553 1.343782,1.75587 2.042548,3.81634 0.716684,2.06046 0.716684,4.26426 0,4.7122 -2.848818,7.43559 -2.848817,2.7234 -7.865602,2.8309 z"
         id="path5251"
         style="fill:#e7e7e7;fill-opacity:1;stroke:#e7e7e7;stroke-opacity:1" />
    </g>
  </g>
</svg>
