<?xml version="1.0" encoding="UTF-8" standalone="no"?>
<!-- Created with Inkscape (http://www.inkscape.org/) -->

<svg
   width="46.048019mm"
   height="46.048027mm"
   viewBox="0 0 46.048019 46.048027"
   version="1.1"
   id="svg5"
   xmlns:inkscape="http://www.inkscape.org/namespaces/inkscape"
   xmlns:sodipodi="http://sodipodi.sourceforge.net/DTD/sodipodi-0.dtd"
   xmlns="http://www.w3.org/2000/svg"
   xmlns:svg="http://www.w3.org/2000/svg">
  <sodipodi:namedview
     id="namedview7"
     pagecolor="#ffffff"
     bordercolor="#eeeeee"
     borderopacity="1"
     inkscape:showpageshadow="0"
     inkscape:pageopacity="0"
     inkscape:pagecheckerboard="0"
     inkscape:deskcolor="#505050"
     inkscape:document-units="mm"
     showgrid="false" />
  <defs
     id="defs2" />
  <g
     inkscape:label="Capa 1"
     inkscape:groupmode="layer"
     id="layer1"
     transform="translate(-47.863481,-68.610601)">
    <circle
       style="fill:none;stroke:#042475;stroke-width:1.805;stroke-linecap:square;stroke-linejoin:round;stroke-dasharray:none;stroke-opacity:1"
       id="path400"
       cx="71.00145"
       cy="84.73465"
       r="9.0753441" />
    <path
       id="path447-3"
       style="fill:none;stroke:#042475;stroke-width:1.805;stroke-linecap:square;stroke-linejoin:round;stroke-dasharray:none;stroke-opacity:1"
       d="m 87.814115,104.37129 c -2.141586,-4.530344 -6.010175,-8.012874 -10.73991,-9.668144 -1.683976,1.60017 -3.917451,2.49367 -6.240446,2.49648 -2.308622,-0.003 -4.529303,-0.88581 -6.209957,-2.46858 -4.695658,1.66624 -8.533263,5.13578 -10.662915,9.640244"
       sodipodi:nodetypes="ccccc" />
    <path
       id="path236-3"
       style="fill:none;stroke:#042475;stroke-width:1.805;stroke-linecap:square;stroke-linejoin:round;stroke-dasharray:none;stroke-opacity:1"
       d="M 93.008999,91.634623 A 22.121513,22.121513 0 0 1 70.887489,113.75613 22.121513,22.121513 0 0 1 48.76598,91.634623 22.121513,22.121513 0 0 1 70.887489,69.513109 22.121513,22.121513 0 0 1 93.008999,91.634623 Z" />
    <circle
       style="fill:#042475;fill-opacity:1;stroke:none;stroke-width:1.805;stroke-linecap:round;stroke-linejoin:round;stroke-dasharray:none;stroke-opacity:1"
       id="path3409"
       cx="67.814697"
       cy="82.863258"
       r="1.5957834" />
    <circle
       style="fill:#042475;fill-opacity:1;stroke:none;stroke-width:1.805;stroke-linecap:round;stroke-linejoin:round;stroke-dasharray:none;stroke-opacity:1"
       id="path3409-0"
       cx="74.57991"
       cy="82.81282"
       r="1.5957834" />
    <path
       style="fill:#042475;fill-opacity:1;stroke:#042475;stroke-width:1.805;stroke-linecap:round;stroke-linejoin:round;stroke-dasharray:none;stroke-opacity:1"
       d="m 68.595704,88.468786 c 2.686719,1.511625 4.884416,0.06762 4.887389,0.06578"
       id="path3828"
       sodipodi:nodetypes="cc" />
  </g>
</svg>
